<?xml version="1.0" encoding="UTF-8"?>
<svg id="Camada_2" data-name="Camada 2" xmlns="http://www.w3.org/2000/svg" viewBox="0 0 107.83 168.24">
  <defs>
    <style>
      .cls-1 {
        fill: #e8a615;
      }

      .cls-2 {
        fill: #f41943;
      }

      .cls-3 {
        fill: #ffc943;
      }

      .cls-4 {
        fill: #f9b906;
      }

      .cls-5 {
        fill: #ba0f38;
      }

      .cls-6 {
        fill: #ce9117;
      }
    </style>
  </defs>
  <g id="objects">
    <g>
      <g>
        <path class="cls-2" d="M102.96,0l-27.01,56.87c-.39.84-1.35,1.25-2.25.98-2.24-.66-4.52-1.22-6.81-1.66-.23-.05-.46-.09-.68-.13-4.19-.77-8.46-1.15-12.74-1.15-1.7,0-3.41.06-5.1.18-.26.02-.52.03-.77.06-2.83.23-5.65.63-8.43,1.21-.79.16-1.43-.66-1.08-1.39L64.11,0h38.85Z"/>
        <polygon class="cls-5" points="58.72 31.67 53.91 21.54 57.49 13.98 62.34 24.03 58.72 31.67"/>
        <polygon class="cls-5" points="68.24 51.79 59.09 32.47 59.09 32.46 62.71 24.81 71.95 43.97 68.24 51.79"/>
        <path class="cls-5" d="M77.06,54.56l-1.1,2.31c-.39.84-1.35,1.25-2.25.98-2.25-.67-4.52-1.23-6.81-1.66-.23-.05-.45-.09-.68-.13h0c-4.05-.75-8.16-1.12-12.3-1.15.15,0,.29,0,.44,0,3.99,0,7.99.33,11.93,1.01.23.03.46.07.69.12.56.1,1.12.21,1.69.33.79.16,1.43-.66,1.08-1.39l-1.13-2.39,3.72-7.83,4.72,9.81Z"/>
        <polygon class="cls-6" points="62.71 24.81 59.09 32.46 58.72 31.68 58.72 31.67 62.34 24.03 62.71 24.81"/>
        <polygon class="cls-4" points="74.46 0 62.71 24.81 62.34 24.03 73.72 0 74.46 0"/>
        <polygon class="cls-6" points="72.33 44.75 68.61 52.58 68.24 51.79 71.95 43.97 72.33 44.75"/>
        <polygon class="cls-4" points="93.59 0 72.33 44.75 71.95 43.97 92.84 0 93.59 0"/>
      </g>
      <g>
        <path class="cls-1" d="M79.68,57.62v12.4h-2.69v-12.05c-1.42-.58-2.87-1.12-4.35-1.59-1.56-.51-3.15-.95-4.77-1.33-4.48-1.05-9.16-1.61-13.97-1.61s-9.48.56-13.97,1.61c-1.62.38-3.2.82-4.77,1.33-1.47.47-2.93,1.01-4.35,1.59v12.05h-2.69v-12.4c0-.87.53-1.65,1.34-1.97,1.53-.61,3.76-1.46,4.53-1.71,2.4-.79,4.87-1.44,7.38-1.94,4.05-.81,8.23-1.24,12.51-1.24s8.47.43,12.51,1.23c2.52.5,4.98,1.16,7.38,1.95.77.25,3.01,1.11,4.54,1.71.81.32,1.34,1.1,1.34,1.97Z"/>
        <circle class="cls-4" cx="53.91" cy="114.33" r="53.91"/>
        <path class="cls-1" d="M53.91,163.45c-27.09,0-49.12-22.03-49.12-49.12s22.03-49.12,49.12-49.12,49.12,22.03,49.12,49.12-22.03,49.12-49.12,49.12Z"/>
        <path class="cls-4" d="M100.03,114.33c0,25.43-20.68,46.12-46.11,46.12-7.21,0-14.04-1.66-20.12-4.63-6.35-3.09-11.88-7.59-16.2-13.1-1.97-2.51-3.68-5.24-5.1-8.13-3-6.12-4.69-12.99-4.69-20.26,0-5.39.93-10.56,2.63-15.37,5.13-14.49,17.31-25.66,32.39-29.4,3.55-.88,7.27-1.35,11.09-1.35,8.51,0,16.48,2.31,23.33,6.34,3.05,1.8,5.88,3.94,8.44,6.37,4.82,4.58,8.64,10.19,11.13,16.47,2.08,5.24,3.22,10.95,3.22,16.93Z"/>
        <path class="cls-3" d="M77.24,74.56L12.49,134.59c-3-6.12-4.69-12.99-4.69-20.26,0-5.39.93-10.56,2.63-15.37l32.39-29.4c3.55-.88,7.27-1.35,11.09-1.35,8.51,0,16.48,2.31,23.33,6.34Z"/>
        <path class="cls-3" d="M96.81,97.4l-63.02,58.42c-6.35-3.09-11.88-7.59-16.2-13.1l68.08-61.79c4.82,4.58,8.64,10.19,11.13,16.47Z"/>
      </g>
      <g>
        <path class="cls-2" d="M68.66,56.36c-2.78-.58-5.6-.98-8.43-1.21-.26-.03-.52-.04-.77-.06-1.69-.12-3.4-.18-5.1-.18-4.28,0-8.55.39-12.74,1.15-.22.04-.45.08-.68.13-2.29.44-4.57,1-6.81,1.66-.9.27-1.86-.14-2.25-.98L4.86,0h38.85l26.03,54.97c.35.73-.29,1.55-1.08,1.39Z"/>
        <path class="cls-4" d="M60.23,55.16c-.26-.03-.52-.04-.77-.06L33.37,0h.75l26.12,55.16Z"/>
        <path class="cls-4" d="M41.61,56.06c-.22.04-.45.08-.68.13L14.24,0h.75l26.63,56.06Z"/>
      </g>
    </g>
  </g>
</svg>